# Blender v2.80 (sub 75) OBJ File: 'sword.blend'
# www.blender.org
mtllib sword.mtl
o Grip_Cube.004
v -0.000000 9.520144 0.148664
v -0.000000 7.549418 0.158861
v 0.262430 9.519631 0.049706
v 0.262430 7.548906 0.059902
v 0.262430 9.518588 -0.148212
v 0.262430 7.547882 -0.138015
v -0.000000 9.518095 -0.247171
v -0.000000 7.547370 -0.236974
v -0.262430 9.518588 -0.148212
v -0.262430 7.547882 -0.138015
v -0.262430 9.519612 0.049706
v -0.262430 7.548906 0.059902
vt 1.000000 1.000000
vt 0.833333 0.500000
vt 1.000000 0.500000
vt 0.833333 1.000000
vt 0.666667 0.500000
vt 0.500000 1.000000
vt 0.500000 0.500000
vt 0.333333 0.500000
vt 0.166667 1.000000
vt 0.166667 0.500000
vt -0.000000 1.000000
vt -0.000000 0.500000
vt 0.666667 1.000000
vt 0.333333 1.000000
vn 0.3528 0.0048 0.9357
vn 1.0000 0.0000 -0.0000
vn 0.3528 -0.0048 -0.9357
vn -0.3528 -0.0048 -0.9357
vn -1.0000 0.0000 0.0000
vn -0.3528 0.0048 0.9357
usemtl leather
s off
f 2/1/1 3/2/1 1/3/1
f 4/4/2 5/5/2 3/2/2
f 5/5/3 8/6/3 7/7/3
f 8/6/4 9/8/4 7/7/4
f 9/8/5 12/9/5 11/10/5
f 11/10/6 2/11/6 1/12/6
f 2/1/1 4/4/1 3/2/1
f 4/4/2 6/13/2 5/5/2
f 5/5/3 6/13/3 8/6/3
f 8/6/4 10/14/4 9/8/4
f 9/8/5 10/14/5 12/9/5
f 11/10/6 12/9/6 2/11/6
o Guard_Cube.002
v 1.041519 6.915490 0.099947
v 1.041519 6.914085 -0.171504
v 1.041519 7.456573 0.097148
v 1.041519 7.455168 -0.174304
v -1.041519 6.915490 0.099947
v -1.041519 6.914085 -0.171504
v -1.041519 7.456573 0.097148
v -1.041519 7.455168 -0.174304
v 0.000000 7.689674 0.242003
v -0.000000 7.686758 -0.321564
v 0.000000 7.148592 0.244803
v -0.000000 7.145675 -0.318764
vt 0.375000 0.000000
vt 0.625000 0.250000
vt 0.375000 0.250000
vt 0.625000 0.375000
vt 0.375000 0.500000
vt 0.375000 0.375000
vt 0.625000 0.500000
vt 0.375000 0.750000
vt 0.375000 0.875000
vt 0.625000 1.000000
vt 0.375000 1.000000
vt 0.250000 0.750000
vt 0.250000 0.500000
vt 0.875000 0.500000
vt 0.750000 0.750000
vt 0.750000 0.500000
vt 0.625000 0.750000
vt 0.125000 0.500000
vt 0.125000 0.750000
vt 0.625000 0.875000
vt 0.625000 0.000000
vt 0.875000 0.750000
vn 1.0000 0.0000 0.0000
vn -0.2177 0.9760 -0.0050
vn -1.0000 -0.0000 0.0000
vn -0.2177 -0.9760 0.0051
vn -0.1389 0.0051 0.9903
vn 0.1389 -0.0051 -0.9903
vn -0.1389 -0.0051 -0.9903
vn 0.1389 0.0051 0.9903
vn 0.2177 -0.9760 0.0050
vn 0.2177 0.9760 -0.0051
vn -0.2177 0.9760 -0.0051
vn 0.2177 -0.9760 0.0051
usemtl wood
s off
f 13/15/7 16/16/7 15/17/7
f 22/18/8 19/19/8 21/20/8
f 20/21/9 17/22/9 19/19/9
f 23/23/10 14/24/10 13/25/10
f 19/19/11 23/26/11 21/27/11
f 16/28/12 24/29/12 22/30/12
f 20/21/13 24/29/13 18/31/13
f 15/32/14 23/26/14 13/33/14
f 17/22/15 24/34/15 23/23/15
f 16/16/16 21/20/16 15/17/16
f 13/15/7 14/35/7 16/16/7
f 22/18/17 20/21/17 19/19/17
f 20/21/9 18/31/9 17/22/9
f 23/23/10 24/34/10 14/24/10
f 19/19/11 17/22/11 23/26/11
f 16/28/12 14/36/12 24/29/12
f 20/21/13 22/30/13 24/29/13
f 15/32/14 21/27/14 23/26/14
f 17/22/18 18/31/18 24/34/18
f 16/16/16 22/18/16 21/20/16
o Pommel_Cube.003
v -0.450192 9.846506 -0.179370
v -0.450191 9.847836 0.077468
v -0.450192 9.533907 -0.177752
v -0.450191 9.535236 0.079085
v 0.450192 9.844133 -0.179358
v 0.450191 9.847836 0.077468
v 0.450192 9.531534 -0.177740
v 0.450191 9.535236 0.079085
v -0.000000 9.380194 -0.362438
v -0.000000 9.383442 0.265352
v -0.000000 9.998299 -0.365637
v -0.000000 10.001547 0.262155
vt 0.375000 0.000000
vt 0.625000 0.250000
vt 0.625000 0.000000
vt 0.375000 0.500000
vt 0.625000 0.375000
vt 0.375000 0.375000
vt 0.375000 0.750000
vt 0.625000 0.500000
vt 0.375000 0.875000
vt 0.625000 1.000000
vt 0.625000 0.875000
vt 0.250000 0.500000
vt 0.750000 0.750000
vt 0.875000 0.500000
vt 0.750000 0.500000
vt 0.125000 0.500000
vt 0.250000 0.750000
vt 0.625000 0.750000
vt 0.375000 0.250000
vt 0.375000 1.000000
vt 0.875000 0.750000
vt 0.125000 0.750000
vn -1.0000 -0.0000 0.0000
vn 0.3168 -0.9485 0.0049
vn 1.0000 0.0000 0.0000
vn -0.3213 0.9470 -0.0049
vn 0.3809 -0.0048 -0.9246
vn -0.3809 0.0048 0.9246
vn 0.3809 0.0048 0.9246
vn -0.3809 -0.0048 -0.9246
vn 0.3290 0.9442 -0.0136
vn -0.3213 -0.9470 0.0049
vn 0.3245 -0.9458 0.0136
vn 0.3213 0.9470 -0.0049
usemtl wood
s off
f 25/37/19 28/38/19 26/39/19
f 31/40/20 34/41/20 33/42/20
f 29/43/21 32/44/21 31/40/21
f 35/45/22 26/46/22 36/47/22
f 33/48/23 29/43/23 31/40/23
f 36/49/24 28/50/24 34/51/24
f 32/44/25 36/49/25 34/51/25
f 27/52/26 35/53/26 33/48/26
f 35/45/27 30/54/27 29/43/27
f 33/42/28 28/38/28 27/55/28
f 25/37/19 27/55/19 28/38/19
f 31/40/29 32/44/29 34/41/29
f 29/43/21 30/54/21 32/44/21
f 35/45/22 25/56/22 26/46/22
f 33/48/23 35/53/23 29/43/23
f 36/49/24 26/57/24 28/50/24
f 32/44/25 30/54/25 36/49/25
f 27/52/26 25/58/26 35/53/26
f 35/45/30 36/47/30 30/54/30
f 33/42/28 34/41/28 28/38/28
o Blade_Cube
v 0.586182 7.151095 -0.037001
v 0.000000 7.151727 0.085146
v 0.586182 0.948660 -0.004908
v -0.016203 0.949292 0.117239
v 0.000000 7.150463 -0.159145
v -0.618582 7.151095 -0.036999
v -0.016202 0.948028 -0.127053
v -0.618582 0.948660 -0.004907
v -0.016224 0.000000 -0.000000
v -0.345151 2.198982 -0.066822
v -0.618582 2.087629 -0.010800
v -0.346955 2.199023 0.043703
v -0.618582 2.298952 -0.011894
vt 0.375000 0.250000
vt 0.625000 0.000000
vt 0.375000 0.000000
vt 0.375000 0.250000
vt 0.625000 0.250000
vt 0.125000 0.500000
vt 0.375000 0.750000
vt 0.375000 0.500000
vt 0.125000 0.750000
vt 0.125000 0.750000
vt 0.625000 0.500000
vt 0.625000 0.500000
vt 0.375000 0.500000
vt 0.375000 1.000000
vt 0.375000 1.000000
vt 0.625000 1.000000
vt 0.625000 0.750000
vt 0.624500 0.659800
vt 0.477840 0.674977
vt 0.477039 0.828029
vt 0.380137 0.935650
vt 0.380258 0.556239
vt 0.624498 0.840555
vt 0.625000 0.750000
vt 0.624249 0.750716
vt 0.624451 0.750510
vt 0.375000 0.750000
vn 0.2040 -0.0051 -0.9790
vn 0.1972 -0.1302 -0.9717
vn 0.2040 0.0051 0.9790
vn 0.1972 -0.1202 0.9730
vn -0.1972 -0.1302 -0.9717
vn -0.1972 -0.1202 0.9730
vn -0.1969 -0.0046 -0.9804
vn -0.3443 -0.9388 -0.0053
vn -0.3783 0.9257 -0.0065
vn -0.1969 0.0056 0.9804
vn 0.1987 -0.0056 -0.9800
vn 0.1987 0.0046 0.9800
vn -0.1987 -0.0051 -0.9800
vn -0.1985 -0.0044 -0.9801
vn -0.1937 -0.0051 -0.9810
vn -0.1937 0.0051 0.9810
vn -0.1987 0.0051 0.9800
vn -0.1985 0.0057 0.9801
usemtl metal
s off
f 39/59/31 41/60/31 37/61/31
f 39/59/32 45/62/32 43/63/32
f 38/64/33 39/65/33 37/66/33
f 40/67/34 45/68/34 39/65/34
f 43/69/35 45/70/35 44/71/35
f 44/72/36 45/73/36 40/74/36
f 41/75/37 43/69/37 46/76/37
f 46/77/38 48/78/38 49/79/38
f 48/78/39 46/77/39 47/80/39
f 48/81/40 40/74/40 38/82/40
f 39/59/41 43/63/41 41/60/41
f 38/64/42 40/67/42 39/65/42
f 43/69/43 44/72/43 47/83/43
f 46/76/44 49/84/44 41/75/44
f 49/84/45 42/85/45 41/75/45
f 43/69/43 47/83/43 46/76/43
f 38/82/46 42/85/46 49/84/46
f 48/81/47 47/83/47 40/74/47
f 47/83/47 44/72/47 40/74/47
f 38/82/48 49/84/48 48/81/48
