# Blender v2.80 (sub 75) OBJ File: 'z facing model.blend'
# www.blender.org
mtllib superhot.mtl
o arm_right.001_Superhot_Enemy_Stl.019
v -0.403725 6.468345 13.820985
v -2.240401 5.985025 8.924118
v -1.384958 2.147271 17.265472
v 4.518209 2.857290 6.828827
v 0.583137 5.781780 4.403214
v 1.333986 6.212038 8.412888
v 3.162449 -1.992522 10.591995
v -1.067123 -3.044408 11.217102
v -2.125799 -3.898528 5.006057
v 5.121367 2.792884 9.267212
v 5.305288 -0.601777 17.022354
v -4.526772 1.074189 10.580933
v -6.185638 4.913596 6.161133
v -1.989704 -4.264145 2.709381
v 1.966442 -3.539306 3.502014
v 4.421028 1.984512 3.906739
v -3.477983 -7.547557 -0.574189
v -0.748873 -5.660689 -0.699616
v -2.336993 4.922964 0.162201
v -3.137249 5.505932 2.791276
v -1.273159 5.616090 3.600541
v 0.051697 5.442541 1.790177
v 1.141285 4.401329 -2.224289
v 4.871975 0.494600 -0.648804
v 2.621876 -4.387914 -0.221283
v 5.050895 5.718974 17.310699
v -4.429245 4.825488 -4.009262
v -4.235872 -1.777034 -6.111404
v -3.201462 -1.255145 9.177887
v 3.093413 -3.622581 -2.961457
v 5.039288 -0.279270 -3.568283
v 1.992657 -5.721407 -3.454392
v 1.920688 5.851851 17.860550
v -0.017658 0.228064 15.930634
v 1.380033 -0.490333 17.980240
v -0.667721 0.490439 18.993805
v 3.858642 4.431530 22.304642
v 4.362467 -0.636658 26.969185
v -4.522017 4.584368 1.650422
v 2.073187 -0.855640 -4.438156
vn -0.8623 0.4206 0.2819
vn 0.6612 0.7227 -0.2014
vn 0.2528 -0.9634 0.0894
vn 0.8773 -0.4223 -0.2282
vn 0.8848 -0.4188 -0.2043
vn 0.1403 -0.9720 0.1884
vn 0.1756 -0.9705 0.1649
vn 0.9136 -0.4011 -0.0666
vn 0.5141 -0.7117 0.4787
vn 0.0321 0.9778 -0.2070
vn -0.0360 0.9919 -0.1215
vn -0.0464 0.9941 -0.0980
vn -0.0749 0.9938 -0.0825
vn -0.0733 0.9948 -0.0707
vn -0.0268 0.9969 -0.0740
vn 0.6685 0.7062 -0.2332
vn 0.6698 0.7067 -0.2280
vn 0.6294 0.7765 -0.0306
vn 0.8850 -0.4095 0.2215
vn 0.8885 -0.3880 0.2449
vn 0.3080 -0.9144 0.2626
vn 0.8649 -0.5018 0.0087
vn 0.8833 -0.4683 0.0212
vn 0.5031 -0.6933 0.5159
vn 0.0485 0.9982 0.0350
vn 0.6795 0.6913 -0.2455
vn 0.2176 0.9757 0.0237
vn -0.7859 -0.4120 0.4610
vn 0.0221 -0.9787 0.2043
vn -0.5719 -0.7023 0.4239
vn -0.7394 -0.6384 0.2138
vn -0.4384 -0.8987 -0.0161
vn 0.0879 0.9593 0.2683
vn -0.8492 -0.5101 -0.1365
vn -0.0299 -0.9995 -0.0063
vn -0.3835 -0.9167 0.1123
vn 0.9992 0.0405 -0.0060
vn -0.8189 0.4849 0.3071
vn 0.6809 0.7169 -0.1495
vn 0.9699 -0.2404 0.0396
vn -0.3433 0.8894 -0.3017
vn -0.0996 0.9809 -0.1669
vn 0.7437 0.6537 -0.1402
vn 0.7429 0.6564 -0.1314
vn 0.0858 -0.9106 0.4043
vn -0.5854 0.4904 0.6457
vn 0.9020 -0.4018 0.1582
vn 0.2960 -0.9020 0.3144
vn -0.0332 0.9652 -0.2594
vn -0.1393 -0.6951 -0.7053
vn -0.6629 -0.6253 0.4119
vn -0.6914 0.5398 0.4802
vn -0.6930 0.5420 0.4754
vn -0.8243 -0.3623 0.4351
vn 0.2686 -0.9292 0.2537
vn 0.0989 0.9924 -0.0728
vn -0.1262 0.9912 0.0402
vn 0.3118 0.2965 -0.9027
vn 0.1778 0.4085 -0.8953
vn 0.1827 0.4089 -0.8941
vn 0.2779 -0.1948 -0.9406
vn 0.6436 -0.1619 -0.7480
vn 0.3255 -0.3490 -0.8788
vn -0.2346 0.9712 -0.0416
vn -0.4111 0.8855 -0.2163
vn 0.8464 -0.5159 0.1323
usemtl ruby
s off
f 1//1 2//1 3//1
f 4//2 5//2 6//2
f 7//3 8//3 9//3
f 7//4 4//4 10//4
f 10//5 11//5 7//5
f 14//6 15//6 7//6
f 7//7 9//7 14//7
f 16//8 7//8 15//8
f 17//9 18//9 14//9
f 19//10 20//10 21//10
f 22//11 21//11 5//11
f 6//12 5//12 21//12
f 21//13 2//13 6//13
f 1//14 6//14 2//14
f 2//15 21//15 20//15
f 5//16 4//16 16//16
f 16//17 22//17 5//17
f 16//18 23//18 22//18
f 15//19 24//19 16//19
f 24//20 15//20 25//20
f 18//21 25//21 15//21
f 25//22 30//22 31//22
f 30//23 25//23 32//23
f 17//24 32//24 18//24
f 33//25 26//25 6//25
f 10//26 6//26 26//26
f 1//27 33//27 6//27
f 34//28 29//28 8//28
f 7//29 11//29 35//29
f 29//30 34//30 3//30
f 9//31 8//31 29//31
f 36//32 34//32 35//32
f 37//33 26//33 33//33
f 34//34 36//34 3//34
f 38//35 35//35 11//35
f 35//36 38//36 36//36
f 11//37 10//37 26//37
f 12//38 3//38 2//38
f 6//39 10//39 4//39
f 7//40 16//40 4//40
f 20//41 19//41 39//41
f 21//42 22//42 19//42
f 23//43 16//43 24//43
f 23//44 24//44 31//44
f 15//45 14//45 18//45
f 2//46 13//46 12//46
f 25//47 31//47 24//47
f 25//48 18//48 32//48
f 23//49 19//49 22//49
f 28//50 32//50 17//50
f 3//51 12//51 29//51
f 3//52 33//52 1//52
f 3//53 37//53 33//53
f 8//54 35//54 34//54
f 8//55 7//55 35//55
f 23//56 27//56 19//56
f 27//57 39//57 19//57
f 27//58 23//58 28//58
f 23//59 40//59 28//59
f 23//60 31//60 40//60
f 32//61 28//61 40//61
f 40//62 30//62 32//62
f 30//63 40//63 31//63
f 2//64 20//64 13//64
f 39//65 13//65 20//65
f 17//66 14//66 9//66
