# Blender v2.80 (sub 75) OBJ File: 'z facing model.blend'
# www.blender.org
mtllib superhot.mtl
o foot_left.001_Superhot_Enemy_Stl.035
v 2.278021 -0.372925 17.317204
v 4.110462 2.485170 8.999790
v 3.919471 2.008338 17.080841
v 5.505573 4.378424 16.842922
v 1.438302 -2.644170 9.823822
v 2.825575 -0.046565 9.382874
v 1.484466 7.011930 8.305257
v 2.093960 9.073823 15.307733
v 3.528181 4.140429 33.568924
v 2.611558 2.528669 33.589508
v 1.763157 0.822079 33.679962
v 2.240538 -0.143756 20.694683
v -0.641319 0.654896 39.268280
v 3.431688 -1.129001 42.076443
v 4.118058 0.970591 51.646351
v -2.991813 -3.779947 53.986137
v 6.466080 -5.581078 53.724079
v 6.275005 -5.587194 51.091476
v 5.139925 -2.812427 47.933449
v 5.591763 -8.205366 49.003284
v 6.781017 -17.660955 52.907459
v -1.393200 1.796878 42.730740
v -2.430707 4.412924 47.577438
v 2.572061 7.724993 46.405636
v 4.998106 -0.069012 1.570931
v 4.030460 -2.180600 2.202648
v 1.742390 4.439661 -0.326175
v -0.676050 0.610785 33.745415
v 4.534396 4.607183 43.225300
v 1.784877 8.191070 39.056938
v -1.703367 2.427565 33.769547
v -0.595380 7.604793 39.223038
v -0.865218 7.670822 33.508343
v -4.995480 1.454433 9.204334
v -5.647463 3.144684 17.132179
v -2.662780 8.914834 15.583127
v -2.381055 6.957874 8.279908
v -2.325289 3.900202 -0.363716
v -4.099854 -2.655369 2.451324
v -1.097475 -6.533937 51.096722
v -1.730909 -13.304039 54.385067
v 3.080450 -4.402913 2.847614
v 1.027363 -6.334512 3.124382
v -1.235534 -6.238388 3.164764
v -1.922123 -2.720638 9.882763
v -1.918662 -1.533321 17.453747
v 1.513537 7.921400 33.379566
v 0.800042 -4.032448 7.098724
v -3.811956 0.805325 17.319420
v -2.229919 4.710576 53.582985
v 4.404865 5.777098 53.191586
v -0.500388 10.022802 53.192505
v 2.830037 10.269213 53.168930
v 3.319813 9.524097 50.541931
v 5.275103 4.845117 48.483871
v -0.588114 -2.301028 47.079582
v -1.493137 1.010589 46.218006
vn 0.8226 -0.5684 -0.0141
vn 0.8304 -0.5570 -0.0132
vn 0.8843 -0.4651 0.0419
vn 0.8935 -0.4469 0.0433
vn 0.8591 0.4659 -0.2119
vn 0.8666 -0.4918 0.0842
vn 0.8949 -0.4414 0.0657
vn 0.0889 0.3299 0.9398
vn 0.9459 0.3170 -0.0694
vn 0.9465 0.3166 -0.0621
vn 0.9449 0.0143 -0.3271
vn 0.9525 -0.0059 -0.3043
vn -0.5592 0.6736 -0.4833
vn 0.0881 -0.9931 0.0771
vn 0.8205 0.5693 -0.0518
vn -0.8464 -0.5325 -0.0082
vn -0.9856 0.1629 0.0456
vn -0.9859 0.1600 0.0484
vn 0.8558 -0.4399 -0.2723
vn 0.8670 -0.4939 -0.0665
vn -0.3025 -0.9399 -0.1583
vn 0.8476 0.5184 -0.1134
vn -0.8935 0.4185 -0.1627
vn -0.9030 0.4049 -0.1433
vn -0.9027 0.4038 -0.1487
vn -0.2326 0.9687 0.0864
vn -0.8829 -0.1357 -0.4495
vn -0.7825 -0.5809 0.2242
vn -0.8012 -0.5524 0.2299
vn 0.2679 -0.9610 0.0682
vn 0.2376 -0.9652 0.1089
vn 0.8490 -0.5218 0.0837
vn 0.8246 -0.5637 0.0474
vn 0.8318 -0.5476 0.0906
vn 0.7973 0.6002 0.0639
vn 0.4558 -0.8317 0.3170
vn -0.0482 0.9593 -0.2783
vn -0.0118 0.9657 -0.2592
vn -0.0115 0.9582 -0.2859
vn 0.8789 -0.4089 0.2456
vn 0.8667 0.4846 -0.1185
vn 0.8605 -0.4077 0.3054
vn -0.8085 -0.5856 0.0584
vn -0.8586 -0.4876 0.1581
vn -0.2376 0.9711 0.0224
vn -0.7870 -0.6104 0.0894
vn 0.0496 0.0571 0.9971
vn 0.0065 0.0073 1.0000
vn -0.0727 0.9559 -0.2847
vn 0.9404 0.3301 0.0817
vn 0.9331 0.3440 0.1044
vn -0.0468 -0.9636 -0.2633
vn 0.9527 -0.0385 0.3014
vn 0.9902 -0.0075 -0.1391
vn -0.6873 -0.3530 -0.6349
vn 0.7957 0.4894 -0.3567
vn -0.5743 0.7836 -0.2370
vn -0.9504 0.3106 0.0164
vn -0.9687 -0.2347 -0.0807
vn -0.3395 -0.2103 -0.9168
vn -0.9625 -0.2675 0.0454
vn -0.9006 -0.2373 -0.3642
vn -0.3496 -0.3948 -0.8497
vn -0.3614 -0.3798 -0.8516
vn 0.9969 0.0309 -0.0724
vn 0.1392 -0.0632 0.9882
vn 0.0529 -0.8824 0.4675
vn 0.0282 -0.8933 0.4485
vn -0.0279 -0.8657 0.4998
vn -0.7828 -0.6014 0.1597
vn -0.7735 -0.6181 0.1403
vn -0.9581 0.1648 0.2342
vn -0.9644 -0.2644 -0.0033
vn 0.8189 0.5074 -0.2681
vn -0.8612 0.3442 0.3740
vn -0.8704 -0.4923 0.0094
vn 0.9747 -0.1551 -0.1610
vn 0.0865 -0.9962 0.0074
vn 0.8820 0.4668 -0.0643
vn 0.2655 -0.9305 0.2523
vn 0.0252 -0.9876 0.1549
vn 0.8749 0.4717 0.1101
vn 0.6545 -0.6374 0.4066
vn -0.9603 0.1627 -0.2264
vn 0.9060 -0.3395 0.2529
vn 0.9147 -0.3190 0.2483
vn -0.1210 0.9356 -0.3317
vn 0.8254 0.5569 -0.0929
vn -0.1069 0.9934 -0.0421
vn 0.9712 -0.1235 0.2040
vn 0.9434 -0.1194 -0.3095
vn -0.5277 -0.8252 -0.2012
vn 0.7696 0.6237 -0.1366
vn -0.3281 0.7223 -0.6088
vn 0.0459 -0.6906 -0.7218
vn -0.9467 0.0700 -0.3145
vn 0.0365 0.0467 0.9982
vn -0.8682 0.4814 0.1205
vn -0.7762 -0.6228 0.0980
vn -0.4933 -0.8523 0.1740
vn -0.0297 0.9976 0.0627
vn -0.1002 0.9918 0.0789
vn 0.1056 -0.3101 0.9448
vn 0.3015 0.0182 0.9533
usemtl ruby
s off
f 1//1 2//1 3//1
f 4//2 3//2 2//2
f 5//3 6//3 1//3
f 2//4 1//4 6//4
f 2//5 7//5 8//5
f 9//6 10//6 3//6
f 10//7 11//7 12//7
f 15//8 16//8 17//8
f 15//9 17//9 18//9
f 18//10 19//10 15//10
f 19//11 18//11 20//11
f 21//12 20//12 18//12
f 22//13 23//13 24//13
f 11//14 28//14 12//14
f 29//15 30//15 24//15
f 22//16 31//16 13//16
f 31//17 22//17 32//17
f 32//18 33//18 31//18
f 14//19 11//19 10//19
f 10//20 9//20 29//20
f 13//21 11//21 14//21
f 30//22 29//22 9//22
f 34//23 35//23 36//23
f 36//24 37//24 34//24
f 37//25 38//25 34//25
f 24//26 30//26 32//26
f 16//27 40//27 41//27
f 45//28 39//28 44//28
f 39//29 45//29 34//29
f 46//30 1//30 12//30
f 46//31 12//31 28//31
f 12//32 3//32 10//32
f 3//33 12//33 1//33
f 3//34 4//34 9//34
f 4//35 8//35 47//35
f 5//36 48//36 42//36
f 7//37 36//37 8//37
f 36//38 7//38 37//38
f 27//39 37//39 7//39
f 2//40 6//40 25//40
f 2//41 27//41 7//41
f 6//42 5//42 42//42
f 35//43 34//43 45//43
f 49//44 28//44 31//44
f 33//45 32//45 30//45
f 45//46 49//46 35//46
f 50//47 51//47 52//47
f 53//48 52//48 51//48
f 54//49 52//49 53//49
f 51//50 54//50 53//50
f 54//51 51//51 55//51
f 19//52 56//52 14//52
f 55//53 15//53 19//53
f 19//54 29//54 55//54
f 57//55 14//55 56//55
f 55//56 24//56 54//56
f 54//57 24//57 23//57
f 23//58 50//58 52//58
f 23//59 22//59 57//59
f 20//60 40//60 19//60
f 50//61 23//61 56//61
f 40//62 16//62 56//62
f 21//63 41//63 20//63
f 40//64 20//64 41//64
f 21//65 18//65 17//65
f 17//66 41//66 21//66
f 44//67 48//67 45//67
f 5//68 45//68 48//68
f 48//69 44//69 43//69
f 31//70 35//70 49//70
f 28//71 49//71 46//71
f 35//72 31//72 33//72
f 23//73 57//73 56//73
f 8//74 4//74 2//74
f 24//75 32//75 22//75
f 28//76 13//76 31//76
f 14//77 10//77 29//77
f 28//78 11//78 13//78
f 9//79 47//79 30//79
f 1//80 46//80 5//80
f 45//81 5//81 46//81
f 47//82 9//82 4//82
f 43//83 42//83 48//83
f 39//84 34//84 38//84
f 26//85 25//85 6//85
f 42//86 26//86 6//86
f 37//87 27//87 38//87
f 27//88 2//88 25//88
f 30//89 47//89 33//89
f 15//90 55//90 51//90
f 19//91 14//91 29//91
f 14//92 57//92 22//92
f 24//93 55//93 29//93
f 52//94 54//94 23//94
f 56//95 19//95 40//95
f 50//96 56//96 16//96
f 41//97 17//97 16//97
f 33//98 36//98 35//98
f 45//99 46//99 49//99
f 14//100 22//100 13//100
f 47//101 8//101 36//101
f 36//102 33//102 47//102
f 51//103 50//103 15//103
f 15//104 50//104 16//104
