# Blender v2.80 (sub 75) OBJ File: 'z facing model.blend'
# www.blender.org
mtllib superhot.mtl
o foot_righ.001_Superhot_Enemy_Stl.034
v -2.132977 -3.551067 2.298496
v 2.496029 -4.729614 2.332817
v 1.792564 5.465450 -1.237907
v 4.733416 -0.701780 1.385731
v 3.202024 -1.115720 8.944279
v 4.417028 1.167468 8.473629
v 5.624271 3.506177 7.996423
v -0.524851 -1.965361 47.473301
v 0.189826 -2.560830 45.790127
v -0.039071 -7.431728 47.883232
v 4.892653 3.521505 41.727074
v 6.542261 2.343649 48.585342
v 4.995707 -0.638786 45.544334
v 5.865805 6.224215 46.500011
v 0.363691 1.063084 41.376945
v 3.671039 11.596802 52.320091
v 0.343444 11.309362 52.460030
v -0.591814 6.670925 52.704746
v -0.464012 -6.145463 49.281151
v 6.121389 6.529718 52.507557
v 0.340367 1.987933 51.041031
v 8.129314 -1.702077 52.801098
v 3.874962 11.730249 48.910843
v -0.415950 11.508465 48.993912
v -1.603007 5.556387 48.032192
v -1.030820 0.838682 48.921478
v -0.954735 -4.809768 50.726067
v -0.700048 1.455337 46.078922
v -1.070935 5.285048 38.433205
v -1.081486 5.084279 32.984840
v -0.193033 3.338995 38.471649
v 0.009884 3.564257 32.986835
v 0.796788 1.405704 38.458557
v -0.111095 -1.505672 9.152168
v -0.661136 0.663293 16.697105
v -2.574289 2.774712 16.587059
v -3.547833 3.137953 8.626205
v -1.780049 0.855370 8.915268
v -4.544900 4.883325 16.530170
v -1.945395 9.951245 14.816159
v 2.274477 -2.780720 6.179287
v -4.720708 0.483459 1.214142
v -3.341985 -1.544520 1.789772
v 6.701307 5.291763 15.835159
v 5.197738 2.725405 16.210815
v -1.684525 8.071866 7.726498
v 2.788102 10.573091 14.655526
v 2.121151 8.578221 7.363541
v -2.308281 5.411389 -0.940448
v 0.486319 -15.972012 53.716698
v 8.577532 -13.830690 53.280556
v 6.357504 -4.921131 47.597969
v -0.849070 -4.941157 53.257927
v -0.824268 9.507614 23.798275
v 2.685318 9.260417 32.658089
v 0.292089 9.112369 32.718922
v 3.333202 9.938073 43.612190
v 0.458040 9.358245 38.337765
v 3.561491 2.133267 32.826347
v 4.360976 4.123680 32.813461
v -0.428019 2.661855 42.107262
v -1.354722 5.466782 42.696396
v 1.475712 1.409032 24.817671
vn 0.8787 -0.4521 0.1533
vn 0.8850 -0.4389 0.1553
vn 0.8905 -0.4285 0.1528
vn -0.9283 -0.1092 -0.3555
vn 0.9396 -0.2185 -0.2635
vn 0.9730 0.0483 -0.2257
vn 0.3882 -0.6178 -0.6838
vn 0.0381 0.0450 0.9983
vn -0.9740 -0.1017 -0.2025
vn -0.2300 -0.0214 0.9730
vn 0.8970 0.4364 0.0707
vn -0.0502 0.9964 0.0682
vn -0.0846 0.9958 0.0339
vn -0.9712 0.1661 0.1706
vn -0.8397 0.0005 0.5430
vn -0.9678 -0.1116 -0.2255
vn -0.9778 -0.0756 -0.1953
vn -0.9847 -0.1066 -0.1377
vn -0.9785 -0.1461 -0.1456
vn 0.9881 0.1457 -0.0494
vn -0.9115 -0.4109 0.0169
vn -0.8891 -0.4548 -0.0516
vn 0.1296 -0.9504 0.2827
vn -0.7929 -0.6053 0.0694
vn -0.8171 -0.5672 0.1035
vn -0.8976 0.3928 -0.2000
vn 0.2107 -0.8671 0.4515
vn 0.1322 -0.8681 0.4784
vn 0.9024 0.2979 -0.3112
vn -0.8206 -0.4626 0.3357
vn -0.8436 -0.4251 0.3281
vn 0.8626 -0.5059 -0.0033
vn 0.8832 -0.4689 0.0053
vn 0.8888 -0.4583 0.0026
vn -0.1344 0.9566 -0.2585
vn -0.1510 0.9569 -0.2480
vn -0.1528 0.9478 -0.2799
vn -0.0370 0.9401 -0.3388
vn -0.9371 0.3468 -0.0390
vn -0.7730 -0.5083 0.3797
vn -0.9702 -0.1712 -0.1713
vn 0.9422 0.0216 -0.3342
vn 0.9423 0.0215 -0.3341
vn 0.0415 0.0465 0.9981
vn 0.0361 0.0408 0.9985
vn 0.1593 -0.5024 -0.8499
vn -0.9923 -0.1187 0.0353
vn -0.9757 -0.1613 -0.1482
vn -0.1278 0.9897 0.0648
vn -0.1110 0.9912 0.0716
vn -0.0604 0.9968 0.0517
vn 0.9640 0.2557 -0.0728
vn -0.0627 0.9972 -0.0418
vn -0.0983 0.9936 -0.0557
vn 0.9248 -0.3720 -0.0803
vn -0.9022 -0.4097 -0.1346
vn -0.8027 -0.5761 0.1542
vn -0.8757 -0.4471 -0.1824
vn -0.9466 0.3221 -0.0100
vn -0.9360 0.3517 0.0123
vn -0.8856 0.4278 0.1812
vn -0.7367 -0.6598 0.1479
vn -0.7233 -0.6716 0.1604
vn 0.4054 -0.9105 0.0814
vn -0.9340 0.3488 -0.0770
vn -0.3609 -0.9157 0.1768
vn -0.3564 -0.9172 0.1780
vn 0.4787 -0.8774 -0.0320
vn 0.8151 0.5354 -0.2210
vn 0.8147 0.5347 -0.2246
vn 0.8054 0.5443 -0.2347
vn 0.8724 0.0440 -0.4868
vn -0.9477 -0.2815 -0.1504
vn -0.9594 -0.1982 -0.2005
vn -0.8645 0.1424 0.4821
vn -0.0652 0.3142 0.9471
vn 0.8781 0.4188 -0.2314
vn -0.0551 0.9475 -0.3149
vn -0.6850 0.7272 -0.0441
vn 0.1135 -0.4000 -0.9094
vn 0.1151 -0.3967 -0.9107
vn 0.3319 -0.9433 -0.0007
vn 0.3314 -0.9435 -0.0010
vn 0.7973 0.6016 0.0484
vn 0.8651 -0.4944 0.0852
vn 0.9253 -0.3712 0.0779
vn -0.2258 -0.8742 0.4299
vn -0.9266 -0.1816 -0.3292
vn 0.2688 -0.7495 -0.6049
vn 0.9304 0.3618 -0.0580
vn -0.9538 0.2040 0.2207
vn -0.9229 -0.2782 0.2661
vn 0.9628 0.2298 -0.1419
vn -0.8111 -0.5824 -0.0539
vn -0.7302 -0.6808 0.0582
vn -0.7404 -0.6662 0.0900
vn -0.9357 0.3311 -0.1222
vn -0.7682 -0.5544 0.3201
vn -0.9004 0.4349 -0.0133
vn 0.1029 -0.5567 -0.8243
vn 0.9504 0.3089 -0.0358
vn -0.9514 -0.3038 -0.0504
vn -0.9109 -0.3909 -0.1317
vn -0.9118 -0.3714 -0.1753
vn -0.8632 0.4873 0.1318
vn -0.9356 0.3277 0.1316
vn -0.6881 0.6595 0.3026
vn -0.3685 -0.8816 -0.2948
vn -0.9798 -0.1956 -0.0423
vn -0.9815 0.1847 0.0505
vn 0.8771 0.3187 -0.3593
vn -0.7592 0.2486 -0.6015
vn 0.3358 -0.8677 0.3664
vn 0.9385 0.3107 0.1507
vn -0.1121 -0.9427 0.3144
vn 0.0304 0.0516 0.9982
vn 0.0207 -0.3310 0.9434
usemtl ruby
s off
f 2//1 4//1 5//1
f 6//2 5//2 4//2
f 7//3 6//3 4//3
f 8//4 9//4 10//4
f 11//5 12//5 13//5
f 12//6 11//6 14//6
f 13//7 15//7 11//7
f 16//8 17//8 18//8
f 10//9 19//9 8//9
f 20//10 21//10 22//10
f 20//11 23//11 16//11
f 17//12 23//12 24//12
f 23//13 17//13 16//13
f 25//14 18//14 24//14
f 26//15 21//15 25//15
f 19//16 27//16 8//16
f 26//17 8//17 27//17
f 8//18 26//18 28//18
f 25//19 28//19 26//19
f 12//20 14//20 20//20
f 29//21 30//21 31//21
f 31//22 32//22 33//22
f 34//23 5//23 35//23
f 36//24 37//24 38//24
f 35//25 38//25 34//25
f 37//26 39//26 40//26
f 5//27 41//27 2//27
f 5//28 34//28 41//28
f 3//29 7//29 4//29
f 38//30 42//30 43//30
f 38//31 43//31 1//31
f 44//32 45//32 7//32
f 5//33 6//33 45//33
f 6//34 7//34 45//34
f 46//35 40//35 47//35
f 47//36 48//36 46//36
f 49//37 46//37 48//37
f 48//38 3//38 49//38
f 46//39 49//39 37//39
f 1//40 34//40 38//40
f 27//41 19//41 50//41
f 51//42 52//42 22//42
f 12//43 22//43 52//43
f 50//44 51//44 53//44
f 22//45 53//45 51//45
f 51//46 10//46 52//46
f 53//47 27//47 50//47
f 19//48 10//48 50//48
f 54//49 47//49 40//49
f 47//50 54//50 55//50
f 54//51 56//51 55//51
f 11//52 55//52 57//52
f 58//53 55//53 56//53
f 55//54 58//54 57//54
f 59//55 60//55 11//55
f 29//56 31//56 61//56
f 36//57 32//57 30//57
f 33//58 15//58 31//58
f 30//59 29//59 56//59
f 58//60 56//60 29//60
f 39//61 30//61 54//61
f 32//62 36//62 35//62
f 30//63 39//63 36//63
f 11//64 33//64 59//64
f 29//65 62//65 58//65
f 63//66 59//66 32//66
f 35//67 63//67 32//67
f 11//68 15//68 33//68
f 7//69 48//69 47//69
f 7//70 3//70 48//70
f 47//71 44//71 7//71
f 52//72 13//72 12//72
f 62//73 61//73 28//73
f 28//74 15//74 9//74
f 21//75 26//75 27//75
f 53//76 22//76 21//76
f 14//77 57//77 23//77
f 57//78 24//78 23//78
f 62//79 25//79 57//79
f 52//80 9//80 13//80
f 9//81 52//81 10//81
f 45//82 63//82 35//82
f 63//83 45//83 59//83
f 44//84 47//84 55//84
f 45//85 44//85 60//85
f 60//86 59//86 45//86
f 41//87 1//87 2//87
f 9//88 8//88 28//88
f 15//89 13//89 9//89
f 23//90 20//90 14//90
f 17//91 24//91 18//91
f 18//92 25//92 21//92
f 22//93 12//93 20//93
f 32//94 31//94 30//94
f 37//95 36//95 39//95
f 38//96 35//96 36//96
f 40//97 46//97 37//97
f 42//98 38//98 37//98
f 42//99 37//99 49//99
f 10//100 51//100 50//100
f 55//101 11//101 60//101
f 62//102 29//102 61//102
f 15//103 61//103 31//103
f 15//104 28//104 61//104
f 54//105 40//105 39//105
f 56//106 54//106 30//106
f 57//107 58//107 62//107
f 59//108 33//108 32//108
f 25//109 62//109 28//109
f 27//110 53//110 21//110
f 57//111 14//111 11//111
f 24//112 57//112 25//112
f 45//113 35//113 5//113
f 55//114 60//114 44//114
f 1//115 41//115 34//115
f 18//116 20//116 16//116
f 20//117 18//117 21//117
