# Blender v2.80 (sub 75) OBJ File: 'z facing model.blend'
# www.blender.org
mtllib superhot.mtl
o hand_rigjt.001_Superhot_Enemy_Stl.020
v -4.576616 -0.308141 -6.333527
v 2.113631 -3.057189 -6.576645
v 4.627211 -1.159035 14.943077
v 4.765383 -3.688578 21.483253
v 4.087847 -3.630963 16.250916
v 1.888338 -3.350865 13.483154
v 3.324789 -3.280863 12.153793
v 4.350935 0.862344 25.141945
v 3.382275 1.441496 14.254776
v 1.459538 0.480372 21.072639
v 1.271824 -1.020658 32.393631
v 1.828600 -3.248224 33.339935
v 1.754276 -3.900933 30.338745
v 4.846680 1.681103 33.225792
v 2.333317 1.126824 33.828011
v 5.707104 -1.071253 32.683197
v 2.840908 2.948038 33.260765
v 2.160397 -5.100596 24.018204
v 5.119230 -3.882316 23.644104
v 5.015091 -4.369021 29.163078
v 0.355509 -6.089521 25.709946
v 2.671297 -0.794445 34.784813
v 2.298801 -1.244323 29.624619
v 3.013251 -5.496866 29.018158
v 1.152748 1.134424 32.147720
v 2.201803 2.566502 29.028145
v 2.441977 -3.858144 21.270981
v 0.131391 1.003073 22.955627
v 0.189232 -3.445716 21.109230
v -0.775129 -3.728817 26.170578
v -2.208816 -4.366557 25.107262
v 3.034840 1.654390 8.463943
v 1.859238 3.263562 -6.288300
v 1.902439 -3.340756 16.385315
v -3.859379 -1.964973 -4.605194
v 4.932961 0.523236 29.563431
v 3.607595 2.547589 30.777115
v 1.576868 2.845730 31.253479
v -0.545704 2.676460 31.721336
v 0.076897 1.379488 29.497482
v 4.266758 -5.509189 35.279823
v 5.791340 -5.179868 31.749222
v 1.594769 -5.730309 32.264442
v 2.116841 -5.532799 34.167145
v -0.021774 -4.719031 32.012955
v -0.962404 -2.530482 32.669983
v 4.168650 -3.613752 35.677864
v -1.243088 0.345524 32.056450
v 5.770269 -1.156305 29.514282
v -1.020590 -6.374042 31.308456
v 0.666984 1.976119 -1.294357
v 1.170809 -3.092069 3.370186
v 3.555397 -3.114308 9.467865
v -0.118048 -1.029898 10.051735
v 1.204952 -0.867842 16.744102
v 1.010550 -4.226570 35.695267
v 4.846680 1.681103 33.225792
v 2.333317 1.126824 33.828011
v 5.707104 -1.071253 32.683197
v 2.671297 -0.794445 34.784813
vn 0.9531 -0.2749 -0.1264
vn -0.0258 -0.9964 -0.0803
vn -0.2296 0.9706 0.0721
vn 0.1735 0.2484 0.9530
vn 0.3716 -0.9254 -0.0746
vn 0.4070 -0.9083 -0.0967
vn -0.8873 -0.3496 -0.3008
vn -0.9713 -0.1352 -0.1959
vn -0.9335 -0.0785 -0.3500
vn 0.1031 -0.9102 -0.4011
vn 0.1891 0.9335 -0.3048
vn -0.9552 -0.1239 0.2687
vn -0.5817 0.8108 -0.0655
vn -0.3919 0.9197 -0.0232
vn 0.9053 0.4231 -0.0388
vn 0.9064 0.4184 -0.0584
vn 0.9963 0.0435 -0.0746
vn 0.1265 0.9752 -0.1815
vn 0.9966 0.0821 0.0107
vn -0.0497 -0.9980 -0.0402
vn 0.5870 0.6629 -0.4647
vn 0.5342 0.8449 0.0287
vn 0.1158 0.9856 -0.1232
vn 0.1242 0.9882 -0.0891
vn -0.0796 0.9968 -0.0007
vn -0.3943 -0.1854 0.9001
vn -0.4279 -0.7903 -0.4387
vn 0.9473 0.3111 -0.0760
vn -0.6855 -0.6959 0.2139
vn -0.5136 0.8216 -0.2473
vn -0.7324 -0.6652 0.1453
vn 0.4733 -0.7900 -0.3898
vn -0.5416 -0.8079 0.2325
vn -0.6685 -0.0649 -0.7409
vn -0.4194 0.4796 -0.7707
vn -0.3142 -0.3943 0.8636
vn 0.1429 -0.9893 -0.0306
vn -0.6402 -0.0987 0.7618
vn -0.6175 -0.2213 -0.7548
vn -0.1928 0.6687 -0.7181
vn 0.9735 -0.2286 -0.0018
vn -0.6487 -0.2132 0.7306
vn -0.6618 -0.4360 0.6098
vn 0.4894 -0.8375 -0.2432
vn 0.5617 -0.7815 0.2715
vn -0.5216 -0.8360 -0.1707
vn -0.4758 0.3236 0.8179
vn -0.3125 0.9232 0.2237
vn 0.0078 -0.8669 -0.4984
vn 0.0852 0.0759 -0.9935
vn 0.9531 0.2200 -0.2078
vn 0.6012 0.7989 -0.0179
vn 0.1213 -0.9913 -0.0511
vn -0.5883 0.7908 0.1688
vn -0.8847 -0.4277 0.1853
vn -0.0003 -1.0000 -0.0035
vn -0.9557 -0.1493 0.2535
vn -0.5967 -0.7919 0.1293
vn -0.8608 -0.4755 0.1817
vn -0.9176 -0.2099 -0.3375
vn -0.7605 0.2404 -0.6032
vn -0.9482 0.0254 0.3167
vn -0.1314 -0.9913 0.0041
vn -0.1313 -0.9913 0.0061
vn 0.3615 -0.9215 -0.1418
vn 0.9920 0.0896 -0.0888
vn 0.7724 0.6105 -0.1748
vn -0.7570 0.3772 0.5336
vn -0.1834 0.8260 -0.5331
vn -0.4480 -0.2059 0.8700
vn -0.5628 -0.7838 0.2626
vn 0.8931 0.3811 0.2389
vn -0.5847 0.7323 0.3491
vn -0.5428 0.1242 0.8306
vn -0.1342 -0.8977 -0.4197
vn 0.9694 0.2014 -0.1407
vn 0.8909 0.4466 -0.0830
vn -0.4195 0.8982 0.1314
vn -0.5469 0.8364 -0.0363
vn -0.6273 0.7760 0.0662
vn -0.4720 -0.8639 0.1756
vn -0.9622 -0.2722 0.0056
vn -0.3224 -0.8608 -0.3937
vn -0.9508 0.3073 -0.0398
vn 0.9751 0.0616 -0.2129
vn 0.8295 -0.5573 0.0367
vn 0.9300 -0.3085 -0.1996
vn 0.8950 0.4460 0.0059
vn 0.9249 -0.1809 -0.3343
vn 0.9997 0.0161 0.0195
vn 0.9182 -0.0698 0.3900
vn 0.5240 0.4973 0.6914
vn 0.9030 -0.0430 0.4274
vn -0.3180 -0.6741 -0.6667
vn 0.9634 0.0249 -0.2669
vn 0.9958 -0.0918 -0.0047
vn 0.4467 -0.2542 -0.8578
vn -0.1903 0.9787 -0.0775
vn -0.5343 0.8255 0.1817
vn 0.1398 -0.7004 0.6999
vn 0.4283 -0.8672 -0.2541
vn 0.2545 -0.1099 0.9608
vn 0.5357 0.4501 0.7145
usemtl ruby
s off
f 3//1 4//1 5//1
f 5//2 6//2 7//2
f 8//3 9//3 10//3
f 15//4 14//4 17//4
f 18//5 19//5 20//5
f 21//6 18//6 20//6
f 11//7 23//7 12//7
f 24//8 12//8 23//8
f 23//9 25//9 26//9
f 18//10 27//10 4//10
f 26//11 8//11 28//11
f 29//12 23//12 28//12
f 29//13 30//13 23//13
f 30//14 29//14 31//14
f 3//15 32//15 9//15
f 3//16 9//16 8//16
f 2//17 33//17 32//17
f 10//18 28//18 8//18
f 4//19 3//19 8//19
f 34//20 4//20 29//20
f 36//21 26//21 37//21
f 14//22 37//22 17//22
f 37//23 38//23 17//23
f 38//24 37//24 26//24
f 17//25 38//25 39//25
f 17//26 39//26 25//26
f 21//27 31//27 29//27
f 16//28 36//28 14//28
f 40//29 25//29 39//29
f 38//30 26//30 40//30
f 24//31 41//31 12//31
f 20//32 42//32 24//32
f 43//33 44//33 45//33
f 46//34 13//34 45//34
f 13//35 46//35 11//35
f 22//36 46//36 45//36
f 24//37 42//37 41//37
f 45//38 47//38 22//38
f 48//39 23//39 46//39
f 23//40 48//40 25//40
f 49//41 20//41 19//41
f 23//42 30//42 24//42
f 21//43 24//43 30//43
f 20//44 24//44 21//44
f 46//45 23//45 11//45
f 21//46 50//46 31//46
f 15//47 48//47 22//47
f 15//48 25//48 48//48
f 29//49 18//49 21//49
f 29//50 4//50 27//50
f 8//51 49//51 19//51
f 26//52 36//52 8//52
f 52//53 53//53 7//53
f 32//54 51//54 54//54
f 54//55 55//55 10//55
f 53//56 52//56 2//56
f 54//57 1//57 35//57
f 52//58 7//58 54//58
f 55//59 54//59 6//59
f 34//60 29//60 55//60
f 28//61 10//61 29//61
f 26//62 28//62 23//62
f 6//63 5//63 34//63
f 4//64 34//64 5//64
f 18//65 4//65 19//65
f 32//66 53//66 2//66
f 37//67 14//67 36//67
f 25//68 15//68 17//68
f 40//69 39//69 38//69
f 44//70 41//70 47//70
f 56//71 45//71 44//71
f 30//72 50//72 21//72
f 30//73 31//73 50//73
f 46//74 22//74 48//74
f 29//75 27//75 18//75
f 8//76 19//76 4//76
f 49//77 8//77 36//77
f 32//78 33//78 51//78
f 54//79 10//79 9//79
f 9//80 32//80 54//80
f 54//81 35//81 52//81
f 6//82 34//82 55//82
f 7//83 6//83 54//83
f 10//84 55//84 29//84
f 32//85 3//85 53//85
f 3//86 7//86 53//86
f 3//87 5//87 7//87
f 36//88 16//88 49//88
f 42//89 20//89 49//89
f 42//90 49//90 16//90
f 16//91 41//91 42//91
f 47//92 16//92 22//92
f 16//93 47//93 41//93
f 43//94 45//94 13//94
f 12//95 44//95 43//95
f 43//96 13//96 12//96
f 12//97 41//97 44//97
f 45//98 56//98 47//98
f 1//99 54//99 51//99
f 47//100 56//100 44//100
f 26//101 25//101 40//101
f 57//102 58//102 59//102
f 58//103 60//103 59//103
